ffmpeg version 3.4.8-0ubuntu0.2 Copyright (c) 2000-2020 the FFmpeg developers
  built with gcc 7 (Ubuntu 7.5.0-3ubuntu1~18.04)
  configuration: --prefix=/usr --extra-version=0ubuntu0.2 --toolchain=hardened --libdir=/usr/lib/x86_64-linux-gnu --incdir=/usr/include/x86_64-linux-gnu --enable-gpl --disable-stripping --enable-avresample --enable-avisynth --enable-gnutls --enable-ladspa --enable-libass --enable-libbluray --enable-libbs2b --enable-libcaca --enable-libcdio --enable-libflite --enable-libfontconfig --enable-libfreetype --enable-libfribidi --enable-libgme --enable-libgsm --enable-libmp3lame --enable-libmysofa --enable-libopenjpeg --enable-libopenmpt --enable-libopus --enable-libpulse --enable-librubberband --enable-librsvg --enable-libshine --enable-libsnappy --enable-libsoxr --enable-libspeex --enable-libssh --enable-libtheora --enable-libtwolame --enable-libvorbis --enable-libvpx --enable-libwavpack --enable-libwebp --enable-libx265 --enable-libxml2 --enable-libxvid --enable-libzmq --enable-libzvbi --enable-omx --enable-openal --enable-opengl --enable-sdl2 --enable-libdc1394 --enable-libdrm --enable-libiec61883 --enable-chromaprint --enable-frei0r --enable-libopencv --enable-libx264 --enable-shared
  libavutil      55. 78.100 / 55. 78.100
  libavcodec     57.107.100 / 57.107.100
  libavformat    57. 83.100 / 57. 83.100
  libavdevice    57. 10.100 / 57. 10.100
  libavfilter     6.107.100 /  6.107.100
  libavresample   3.  7.  0 /  3.  7.  0
  libswscale      4.  8.100 /  4.  8.100
  libswresample   2.  9.100 /  2.  9.100
  libpostproc    54.  7.100 / 54.  7.100
[rawvideo @ 0x55bdf9d46a20] Estimating duration from bitrate, this may be inaccurate
Input #0, rawvideo, from '../../SVC-Encoder-20220109T061506Z-001/SVC-Encoder/Dataset/RollerCoaster/ERP_8x8/tile_yuv/Tile_29_480x240.yuv':
  Duration: 00:00:10.00, start: 0.000000, bitrate: 41472 kb/s
    Stream #0:0: Video: rawvideo (I420 / 0x30323449), yuv420p, 480x240, 41472 kb/s, 30 tbr, 30 tbn, 30 tbc
Stream mapping:
  Stream #0:0 -> #0:0 (rawvideo (native) -> h264 (libx264))
Press [q] to stop, [?] for help
[libx264 @ 0x55bdf9d53c60] using cpu capabilities: MMX2 SSE2Fast LZCNT SSSE3 SSE4.2 AVX
[libx264 @ 0x55bdf9d53c60] profile High, level 2.1
Output #0, rawvideo, to 'RollerCoaster_Tile_29_480x240_x264_QP_28.h264':
  Metadata:
    encoder         : Lavf57.83.100
    Stream #0:0: Video: h264 (libx264), yuv420p, 480x240, q=-1--1, 30 fps, 30 tbn, 30 tbc
    Metadata:
      encoder         : Lavc57.107.100 libx264
    Side data:
      cpb: bitrate max/min/avg: 0/0/0 buffer size: 0 vbv_delay: -1
frame=  300 fps=0.0 q=34.0 LPSNR=Y:inf U:inf V:inf *:inf size=      67kB time=00:00:09.93 bitrate=  55.1kbits/s speed=20.6x    
video:67kB audio:0kB subtitle:0kB other streams:0kB global headers:0kB muxing overhead: 0.000000%
[libx264 @ 0x55bdf9d53c60] frame I:2     Avg QP:27.05  size:  3717  PSNR Mean Y:46.51 U:49.98 V:51.30 Avg:47.49 Global:47.45
[libx264 @ 0x55bdf9d53c60] frame P:97    Avg QP:28.78  size:   461  PSNR Mean Y:43.47 U:48.12 V:49.99 Avg:44.65 Global:44.47
[libx264 @ 0x55bdf9d53c60] frame B:201   Avg QP:33.50  size:    81  PSNR Mean Y:43.90 U:48.59 V:50.35 Avg:45.08 Global:45.01
[libx264 @ 0x55bdf9d53c60] consecutive B-frames:  6.7%  8.7% 10.0% 74.7%
[libx264 @ 0x55bdf9d53c60] mb I  I16..4: 78.9% 16.8%  4.3%
[libx264 @ 0x55bdf9d53c60] mb P  I16..4:  2.1%  1.8%  0.1%  P16..4: 14.0%  4.4%  0.9%  0.0%  0.0%    skip:76.8%
[libx264 @ 0x55bdf9d53c60] mb B  I16..4:  0.0%  0.0%  0.0%  B16..8: 10.4%  0.4%  0.0%  direct: 0.0%  skip:89.2%  L0:40.3% L1:58.9% BI: 0.8%
[libx264 @ 0x55bdf9d53c60] 8x8 transform intra:35.1% inter:60.7%
[libx264 @ 0x55bdf9d53c60] coded y,uvDC,uvAC intra: 8.4% 29.6% 3.2% inter: 1.6% 1.1% 0.0%
[libx264 @ 0x55bdf9d53c60] i16 v,h,dc,p: 44% 36% 12%  8%
[libx264 @ 0x55bdf9d53c60] i8 v,h,dc,ddl,ddr,vr,hd,vl,hu:  2%  4% 83%  2%  1%  1%  2%  2%  3%
[libx264 @ 0x55bdf9d53c60] i4 v,h,dc,ddl,ddr,vr,hd,vl,hu:  9% 13% 41%  6%  5%  9%  5%  4%  9%
[libx264 @ 0x55bdf9d53c60] i8c dc,h,v,p: 74% 15%  9%  1%
[libx264 @ 0x55bdf9d53c60] Weighted P-Frames: Y:4.1% UV:0.0%
[libx264 @ 0x55bdf9d53c60] ref P L0: 64.0% 20.3% 11.9%  3.6%  0.3%
[libx264 @ 0x55bdf9d53c60] ref B L0: 83.7% 14.6%  1.7%
[libx264 @ 0x55bdf9d53c60] ref B L1: 91.0%  9.0%
[libx264 @ 0x55bdf9d53c60] PSNR Mean Y:43.775 U:48.446 V:50.237 Avg:44.957 Global:44.840 kb/s:54.73
